<svg width="43" height="40" viewBox="0 0 43 40" fill="none" xmlns="http://www.w3.org/2000/svg">
<path d="M11.0182 21.8198C10.9028 21.7902 10.7933 21.7606 10.6897 21.728C7.08515 20.6301 5.0491 16.8095 6.14407 13.205C6.2003 13.0215 6.26244 12.841 6.33347 12.6664C6.3601 12.5954 6.3897 12.5243 6.42225 12.4563C6.46072 12.3675 6.50215 12.2787 6.54358 12.1899C6.57022 12.1367 6.59685 12.0804 6.62645 12.0272C6.659 11.965 6.69155 11.9029 6.72707 11.8466C6.79217 11.7223 6.86616 11.604 6.9431 11.4885C6.97861 11.4323 7.01413 11.3761 7.05556 11.3199C7.09403 11.2636 7.1325 11.2074 7.17393 11.1512C7.25384 11.0417 7.3367 10.9351 7.42548 10.8316C7.46987 10.7783 7.51426 10.725 7.55865 10.6747C7.60304 10.6244 7.64743 10.5741 7.69478 10.5267C7.73918 10.4794 7.78653 10.4291 7.83388 10.3817C7.89898 10.3166 7.96409 10.2545 8.02919 10.1923C8.15941 10.071 8.29554 9.95559 8.43759 9.84313C8.49086 9.8017 8.54413 9.76027 8.5974 9.7218C8.63587 9.6922 8.67138 9.66557 8.71281 9.63893C8.75128 9.60934 8.78976 9.57975 8.83119 9.55311C8.99987 9.4377 9.17744 9.3282 9.355 9.23054C9.47633 9.16543 9.59767 9.10033 9.72196 9.04114C9.76339 9.02042 9.80482 8.99971 9.84922 8.98195C9.91432 8.9494 9.98239 8.92276 10.0475 8.89317C10.1096 8.86653 10.1718 8.8399 10.2339 8.81918C10.2754 8.80143 10.3168 8.78663 10.3582 8.77183C11.0951 8.50549 11.8794 8.36344 12.6784 8.36344C12.8678 8.36344 13.0542 8.37232 13.2466 8.39007C13.2999 8.39303 13.3561 8.39895 13.4094 8.40487C13.4685 8.41375 13.5336 8.41967 13.5928 8.42855C13.6372 8.43446 13.6816 8.44038 13.726 8.44926C13.7911 8.45814 13.8562 8.46998 13.9184 8.48181C14.0012 8.49661 14.0811 8.51437 14.167 8.53212C14.2498 8.54988 14.3327 8.5706 14.4155 8.59131C14.4984 8.61203 14.5813 8.6357 14.6641 8.66234C14.7559 8.69193 14.8535 8.72152 14.9542 8.75704C15.0015 8.77183 15.0518 8.78959 15.1021 8.81031C15.4957 8.9494 15.9367 9.13288 16.4131 9.35483C16.931 9.58566 17.4874 9.86681 18.0704 10.1835C19.2157 10.8049 20.3462 11.5181 21.447 12.3113L21.453 12.3261C22.2786 12.9209 23.0895 13.5631 23.8826 14.2467L24.4479 14.732C24.4745 14.7527 24.4982 14.7764 24.5218 14.7971C24.7053 14.954 24.8858 15.1168 25.0664 15.2795C25.2765 15.466 25.4807 15.6583 25.6819 15.8507C25.7707 15.9335 25.8565 16.0134 25.9423 16.0993C26.0282 16.1821 26.114 16.268 26.1998 16.3508C26.2945 16.4396 26.3863 16.5313 26.478 16.626C26.6437 16.7888 26.8065 16.9545 26.9693 17.1262C27.3451 17.5198 27.7091 17.9163 28.0613 18.3218C28.1264 18.3928 28.1856 18.4579 28.2418 18.5319C28.3246 18.6266 28.4046 18.7213 28.4845 18.816C28.5259 18.8633 28.5673 18.9107 28.6058 18.961C28.6472 19.0083 28.6887 19.0557 28.7271 19.103L28.7686 19.0882C30.5945 18.4579 32.2902 17.7003 33.1928 17.1114C33.4888 16.919 33.761 16.7 34.0067 16.4603L34.0599 16.41C34.0185 16.3567 33.98 16.3035 33.9356 16.2472C33.8942 16.194 33.8528 16.1407 33.8113 16.0874C33.7166 15.9661 33.6249 15.8507 33.5272 15.7323C33.4178 15.5932 33.3053 15.4571 33.1928 15.318C33.0685 15.17 32.9443 15.0191 32.817 14.8711C32.6868 14.7202 32.5566 14.5693 32.4234 14.4183C32.3228 14.3 32.2192 14.1875 32.1156 14.0721C32.0091 13.9537 31.8996 13.8324 31.793 13.714C31.6836 13.5956 31.5741 13.4773 31.4646 13.3618C31.3935 13.2849 31.3195 13.205 31.2426 13.1251C31.1301 13.0067 31.0147 12.8883 30.8993 12.77C30.7839 12.6516 30.6685 12.5332 30.5471 12.4178C30.3134 12.181 30.0736 11.9502 29.8339 11.7223C29.7126 11.6069 29.5913 11.4915 29.4699 11.3791C29.3042 11.2222 29.1355 11.0683 28.9639 10.9144C28.9195 10.873 28.8721 10.8316 28.8248 10.7901C28.6531 10.6362 28.4815 10.4853 28.3069 10.3344C28.301 10.3285 28.298 10.3226 28.2921 10.3196C28.2862 10.3166 28.2832 10.3107 28.2773 10.3048L27.7121 9.81946C26.9367 9.14768 26.1406 8.51141 25.3327 7.91065C25.3357 7.90769 25.3386 7.90473 25.3416 7.90178C23.8885 6.82456 22.3911 5.86572 20.864 5.03709C20.6332 4.9128 20.4053 4.79146 20.1804 4.67309C20.1775 4.67309 20.1775 4.67605 20.1745 4.67605C20.0857 4.63166 19.9999 4.58431 19.9111 4.54287C19.7365 4.45409 19.5619 4.36827 19.3903 4.28541C18.8605 4.02794 18.3515 3.80007 17.8691 3.60179C17.7656 3.5574 17.6649 3.51893 17.5643 3.4775C17.5259 3.4627 17.4874 3.44494 17.4489 3.43311C17.372 3.40351 17.298 3.37688 17.224 3.35024C17.2033 3.34136 17.1855 3.33545 17.1678 3.32953C17.15 3.32065 17.1293 3.31473 17.1145 3.30881C17.076 3.29401 17.0405 3.28218 17.005 3.27034C16.9636 3.25554 16.9221 3.24075 16.8807 3.22595C16.7061 3.16676 16.5374 3.10757 16.3747 3.05726C16.2504 3.01879 16.129 2.98624 16.0047 2.95073C15.7621 2.88562 15.5194 2.82643 15.2767 2.77612C15.259 2.77316 15.2383 2.76724 15.2205 2.76429C15.111 2.74357 15.0045 2.72285 14.8979 2.7051C14.8062 2.68734 14.7115 2.67254 14.6197 2.65775C14.5339 2.64295 14.4481 2.63111 14.3623 2.61928C14.2617 2.60448 14.164 2.59264 14.0663 2.58376C13.9509 2.56897 13.8355 2.56009 13.7201 2.55121C13.6047 2.54233 13.4893 2.53345 13.3768 2.52753C13.2791 2.52162 13.1815 2.51866 13.0838 2.51274C13.0424 2.51274 13.001 2.50978 12.9595 2.50978C12.6133 2.5009 12.267 2.50682 11.9267 2.53049C11.8468 2.53345 11.7699 2.53937 11.69 2.54529C11.6811 2.54529 11.6692 2.54825 11.6574 2.54825C11.5775 2.55417 11.5006 2.56305 11.4206 2.56897C11.3378 2.57784 11.2549 2.58672 11.1721 2.5956C11.0655 2.60744 10.956 2.62223 10.8524 2.63999C10.7696 2.65183 10.6897 2.66663 10.6098 2.67846C10.5032 2.69326 10.3997 2.71398 10.2961 2.73469C10.0978 2.77316 9.89657 2.81755 9.70125 2.8649C9.69829 2.8649 9.69533 2.86786 9.69237 2.86786H9.68941C9.68053 2.87082 9.67165 2.87378 9.66277 2.87674C9.34908 2.95369 9.03539 3.04247 8.73057 3.14309C8.57372 3.19636 8.41983 3.24962 8.26299 3.30585C8.18604 3.33545 8.10614 3.36504 8.03215 3.39463C7.95521 3.42423 7.88123 3.45382 7.80724 3.48637C7.42252 3.64618 7.04668 3.8267 6.67972 4.02498C6.53471 4.10193 6.3897 4.18183 6.24765 4.26765C6.14999 4.32388 6.05529 4.38307 5.95763 4.44226C5.89548 4.48073 5.83333 4.5192 5.77118 4.56063C5.71792 4.59318 5.66465 4.6287 5.61434 4.66421C5.51372 4.72932 5.41014 4.80034 5.31248 4.87433C5.24737 4.91872 5.18227 4.96607 5.12012 5.01342C4.94848 5.13771 4.77979 5.27088 4.61407 5.40702C4.54896 5.46028 4.48385 5.51355 4.42171 5.56682C4.29445 5.67336 4.17016 5.78582 4.04586 5.89827C3.98668 5.95746 3.92453 6.01369 3.86534 6.07288C3.74697 6.18829 3.62859 6.30371 3.51318 6.42504C3.3948 6.54638 3.28234 6.67067 3.17285 6.79497C2.61648 7.42236 2.1193 8.11189 1.69315 8.8547C1.60733 9.00267 1.52447 9.15655 1.44457 9.30748C1.40609 9.38443 1.36762 9.45841 1.32619 9.53831C1.29364 9.60046 1.267 9.66261 1.23741 9.72476C1.21669 9.76619 1.19598 9.80762 1.17822 9.85201C1.14271 9.92895 1.1072 10.0059 1.07464 10.0828C1.04209 10.1509 1.01545 10.216 0.985861 10.287C0.956267 10.3551 0.929633 10.4232 0.902998 10.4942C0.808298 10.728 0.722476 10.9677 0.642572 11.2074C0.610019 11.3021 0.580425 11.3998 0.550831 11.4945C-1.48522 18.1827 2.29983 25.2822 8.99099 27.3213C9.17152 27.3745 9.36092 27.4278 9.55624 27.4781C9.65094 27.5047 9.7486 27.5254 9.8433 27.5491C10.1688 27.629 10.5092 27.7001 10.8672 27.7681C11.0596 27.8036 11.2549 27.8391 11.4562 27.8717C11.0774 25.8889 10.9294 23.8617 11.0182 21.8198Z" fill="white"/>
<path d="M38.61 26.4253C38.6041 26.3247 38.5982 26.2211 38.5893 26.1175C38.5745 25.9133 38.5508 25.7062 38.5242 25.502C38.5183 25.4605 38.5153 25.4191 38.5064 25.3777C38.4975 25.3007 38.4857 25.2208 38.4739 25.1439C38.4709 25.1291 38.4709 25.1172 38.465 25.1054C38.4502 24.9989 38.4295 24.8953 38.4117 24.7947C38.391 24.6822 38.3673 24.5727 38.3466 24.4662C38.2637 24.5254 38.1779 24.5816 38.0921 24.6349C36.7663 25.496 34.9078 26.3898 32.7741 27.1888C32.7741 27.2894 32.7711 27.3871 32.7652 27.4848C32.7623 27.5173 32.7623 27.5499 32.7593 27.5824C32.7563 27.6534 32.7475 27.7274 32.7415 27.7985C32.7386 27.8192 32.7386 27.8399 32.7327 27.8606C32.7238 27.9494 32.7119 28.0352 32.7001 28.121C32.6853 28.2216 32.6676 28.3252 32.6468 28.4258C32.6468 28.4377 32.6439 28.4495 32.6409 28.4614C32.6232 28.5531 32.6024 28.6478 32.5788 28.7395C32.5048 29.0473 32.4071 29.3492 32.2888 29.6481C31.614 31.3438 30.3178 32.6755 28.6428 33.3946C28.5363 33.442 28.4268 33.4834 28.3143 33.5249C28.261 33.5456 28.2048 33.5663 28.1515 33.584C28.0953 33.6048 28.0391 33.6225 27.9858 33.6373C27.9296 33.6551 27.8734 33.6728 27.8171 33.6876C27.7047 33.7202 27.5952 33.7498 27.4827 33.7764C27.4265 33.7882 27.3703 33.803 27.314 33.8149C27.2016 33.8386 27.0891 33.8593 26.9737 33.8741C26.9175 33.8829 26.8612 33.8918 26.805 33.9007C26.7488 33.9096 26.6896 33.9155 26.6334 33.9185C26.5771 33.9273 26.5209 33.9303 26.4647 33.9333C26.2901 33.9481 26.1155 33.954 25.9409 33.954C25.8935 33.954 25.8403 33.954 25.7929 33.951C25.7899 33.954 25.7899 33.954 25.7899 33.951C25.7367 33.951 25.6834 33.948 25.6331 33.9451C25.6301 33.9451 25.6301 33.9451 25.6301 33.9451C25.5769 33.9421 25.5236 33.9392 25.4733 33.9362C25.423 33.9333 25.3727 33.9303 25.3194 33.9244C25.2484 33.9185 25.1744 33.9096 25.1004 33.8977C25.0679 33.8948 25.0412 33.8889 25.0087 33.8859C24.8962 33.8711 24.7867 33.8533 24.6743 33.8326C24.4671 33.7912 24.2629 33.7439 24.0587 33.6847C23.9906 33.6639 23.9255 33.6432 23.8575 33.6196C23.8279 33.6107 23.7983 33.6018 23.7657 33.59C23.6621 33.5545 23.5556 33.516 23.452 33.4745C21.7593 32.7998 20.4275 31.5066 19.7084 29.8286C19.5575 29.4823 19.4066 29.0532 19.2556 28.559C18.1192 24.8243 18.1695 20.8173 19.3148 17.1062H19.2793C19.3799 16.7807 19.4865 16.4551 19.6048 16.1326C19.6374 16.0438 19.6699 15.952 19.7054 15.8603C19.7498 15.7478 19.7942 15.6324 19.8386 15.52C19.883 15.4075 19.9304 15.2951 19.9777 15.1856C20.0221 15.0731 20.0724 14.9636 20.1227 14.8541C20.1494 14.7949 20.176 14.7328 20.2026 14.6736C20.2293 14.6144 20.2559 14.5552 20.2855 14.4931C20.3447 14.3628 20.4098 14.2356 20.4719 14.1054C20.4749 14.0965 20.4808 14.0906 20.4838 14.0847C20.5489 13.9485 20.6169 13.8124 20.6909 13.6792C19.5989 12.8832 18.4773 12.1729 17.3409 11.5574C16.7431 11.2348 16.166 10.9448 15.6422 10.708C15.6304 10.7317 15.6156 10.7554 15.6037 10.779C15.5505 10.8737 15.5002 10.9714 15.4528 11.0691C15.3729 11.22 15.296 11.3709 15.222 11.5218C15.151 11.6609 15.0829 11.8059 15.0178 11.948C14.9971 11.9953 14.9734 12.0427 14.9527 12.0871C14.9349 12.1256 14.9172 12.164 14.8994 12.2055C14.8757 12.2558 14.8521 12.309 14.8313 12.3593C14.7899 12.4452 14.7514 12.5339 14.713 12.6227C14.6804 12.6938 14.6479 12.7677 14.6183 12.8417C14.5739 12.9423 14.5324 13.04 14.491 13.1436C14.42 13.3182 14.3519 13.4928 14.2809 13.6704C14.2691 13.7029 14.2543 13.7355 14.2424 13.771C14.1951 13.8953 14.1477 14.0196 14.1033 14.1439C14.0945 14.1646 14.0885 14.1882 14.0797 14.206C14.0264 14.3599 13.9702 14.5138 13.9199 14.6677C13.8222 14.9518 13.7305 15.2388 13.6446 15.5229C13.6062 15.6531 13.5677 15.7774 13.5322 15.9076C13.5292 15.9195 13.5263 15.9313 13.5233 15.9432C13.5026 16.0201 13.4789 16.1 13.4582 16.1769C13.4493 16.2065 13.4404 16.2361 13.4316 16.2657C13.399 16.3871 13.3664 16.5054 13.3369 16.6268C13.2747 16.8694 13.2155 17.1151 13.1623 17.3607C13.1356 17.4791 13.1119 17.5975 13.0853 17.7158C13.0587 17.8401 13.035 17.9644 13.0113 18.0917C12.9847 18.2308 12.9581 18.3669 12.9344 18.506C12.9285 18.5445 12.9196 18.5829 12.9137 18.6214C12.8929 18.7398 12.8722 18.8611 12.8545 18.9795C12.8486 19.012 12.8426 19.0387 12.8397 19.0712H12.8426L12.8781 19.0742C12.307 22.7941 12.5437 26.6295 13.6535 30.2666C13.8192 30.8081 13.9909 31.3083 14.1714 31.7581L14.1477 31.767C14.1951 31.8942 14.2483 32.0156 14.2987 32.1369C15.4114 34.7234 17.2876 36.7506 19.5516 38.0705C19.5871 38.0912 19.6255 38.1119 19.6611 38.1326C19.7854 38.2036 19.9096 38.2717 20.0339 38.3368C20.0872 38.3664 20.1434 38.393 20.1967 38.4226C20.3388 38.4937 20.4778 38.5647 20.6229 38.6298C20.7235 38.6771 20.8241 38.7215 20.9277 38.763C20.9928 38.7926 21.0579 38.8192 21.126 38.8458C21.1792 38.8695 21.2325 38.8932 21.2858 38.9139C22.8069 39.5206 24.3931 39.8224 25.9823 39.8224C27.6839 39.8224 29.3826 39.4762 30.9896 38.7837L30.9807 38.763C34.0821 37.4224 36.4763 34.9572 37.7281 31.8173C38.3318 30.2962 38.6366 28.7099 38.6366 27.1208C38.6366 27.0142 38.6337 26.9077 38.6337 26.8011C38.6218 26.6709 38.6189 26.5466 38.61 26.4253Z" fill="white"/>
<path d="M42.7411 10.1364C42.7233 10.0565 42.7085 9.97656 42.6908 9.89666C42.673 9.81972 42.6553 9.74277 42.6375 9.66583C42.309 8.31339 41.7497 6.99055 40.9477 5.75944C37.1271 -0.100136 29.2581 -1.76627 23.3956 2.05134C23.3571 2.07797 23.3186 2.09869 23.2802 2.12828C23.2417 2.15491 23.2032 2.17859 23.1648 2.20522C22.8925 2.39166 22.6084 2.59882 22.3154 2.82373C22.274 2.85629 22.2296 2.8918 22.1911 2.92435C22.0165 3.06049 21.839 3.2055 21.6614 3.35642C21.5933 3.41265 21.5223 3.47184 21.4542 3.53103C21.4424 3.53991 21.4276 3.55174 21.4158 3.56358C21.4809 3.59613 21.546 3.63461 21.614 3.67012C23.3364 4.60528 25.0203 5.69434 26.645 6.9284C26.7604 6.85442 26.8758 6.78339 26.9942 6.72124C27.0386 6.69461 27.083 6.66797 27.1303 6.64726C27.1836 6.61471 27.2398 6.58807 27.2961 6.56144C27.37 6.52296 27.444 6.49041 27.518 6.4549C27.6038 6.41347 27.6926 6.37795 27.7784 6.34244C27.8406 6.31581 27.9027 6.29509 27.9678 6.27142C27.9767 6.2655 27.9856 6.26254 27.9945 6.26254C28.0477 6.24182 28.104 6.22407 28.1572 6.20631C28.172 6.20039 28.1839 6.19743 28.1987 6.19151C28.2727 6.16488 28.3437 6.14416 28.4206 6.12345C28.5863 6.0761 28.7521 6.03467 28.9178 5.99915C28.9888 5.98436 29.0598 5.96956 29.1309 5.95772C29.1457 5.95476 29.1575 5.9518 29.1723 5.94884C29.2315 5.93997 29.2936 5.92813 29.3528 5.92221C29.3824 5.91925 29.412 5.91333 29.4416 5.91037C29.4949 5.90149 29.5481 5.89558 29.6044 5.88966C29.847 5.86302 30.0897 5.85118 30.3353 5.85118C30.4152 5.85118 30.4952 5.85414 30.5751 5.8571C30.6135 5.8571 30.6461 5.86006 30.6816 5.86302C30.7763 5.86598 30.868 5.8719 30.9598 5.88374C31.0456 5.89262 31.1285 5.90149 31.2143 5.91333C31.2409 5.91629 31.2646 5.91925 31.2912 5.92221C31.38 5.93701 31.4717 5.94884 31.5605 5.9666C31.6493 5.9814 31.7381 6.00211 31.8269 6.01987C31.8653 6.02875 31.9038 6.03763 31.9393 6.0465C32.0163 6.06426 32.0903 6.08498 32.1642 6.10569C32.2649 6.13233 32.3655 6.16488 32.4661 6.19743C32.5667 6.22999 32.6644 6.2655 32.762 6.30397C32.8449 6.33652 32.9248 6.36908 33.0047 6.40163C33.0876 6.43714 33.1675 6.47265 33.2444 6.50817C33.3243 6.54664 33.4013 6.58511 33.4812 6.62654C33.5611 6.66797 33.6351 6.70941 33.712 6.75084C33.7712 6.78635 33.8363 6.82186 33.8925 6.85737C33.9517 6.89289 34.0109 6.9284 34.0671 6.96983C34.1263 7.0083 34.1855 7.04678 34.2417 7.08821C34.3009 7.12668 34.3601 7.17107 34.4193 7.2125C34.4755 7.25689 34.5317 7.29832 34.588 7.34271C34.6708 7.40782 34.7537 7.47589 34.8336 7.54987C34.9165 7.6209 34.9964 7.69488 35.0704 7.76887C35.3101 7.9997 35.535 8.2542 35.7421 8.52351C35.7717 8.55902 35.7984 8.59453 35.825 8.63301C35.9019 8.73658 35.9759 8.84312 36.047 8.95262C36.0499 8.95558 36.0499 8.95854 36.0529 8.9615L36.047 8.96741C36.4642 9.60664 36.7631 10.2991 36.9466 11.0183C36.9644 11.0952 36.9851 11.1722 36.9999 11.2491C37.0117 11.3024 37.0236 11.3556 37.0354 11.4119C37.062 11.5569 37.0857 11.7019 37.1035 11.8469C37.1064 11.8647 37.1064 11.8824 37.1094 11.9002C37.1449 12.2257 37.1597 12.5512 37.1508 12.8768C37.1508 12.9212 37.1478 12.9596 37.1449 13.0011C37.1419 13.0543 37.1419 13.1046 37.136 13.152C37.1301 13.2319 37.1242 13.3147 37.1153 13.3947C37.1064 13.4746 37.0975 13.5545 37.0857 13.6344C37.0739 13.7143 37.062 13.7912 37.0472 13.8711C37.0324 13.9629 37.0147 14.0516 36.994 14.1404C36.9792 14.2085 36.9614 14.2765 36.9466 14.3446C36.9289 14.4156 36.9081 14.4837 36.8904 14.5518C36.8874 14.5695 36.8815 14.5843 36.8756 14.5991C36.8578 14.6554 36.843 14.7116 36.8223 14.7678C36.8105 14.8063 36.7957 14.8448 36.7838 14.8803C36.7395 15.0105 36.6921 15.1348 36.6418 15.262C36.6122 15.339 36.5796 15.413 36.5471 15.484C36.5145 15.558 36.482 15.6319 36.4435 15.7059C36.408 15.777 36.3725 15.8509 36.3311 15.922C36.2926 15.993 36.2541 16.0611 36.2156 16.1291C36.2127 16.135 36.2097 16.138 36.2068 16.1439C36.1683 16.209 36.1298 16.2741 36.0884 16.3363C36.0854 16.3392 36.0854 16.3392 36.0854 16.3422L36.0913 16.3481C35.5735 17.1649 34.881 17.8722 34.0464 18.4167C32.7976 19.2306 30.4508 20.2338 27.7992 21.0358L27.7932 21.021C27.5506 21.095 27.3079 21.166 27.0623 21.237C26.8847 21.2873 26.7042 21.3376 26.5237 21.385C26.3994 21.4175 26.2751 21.4501 26.1478 21.4826C25.8874 21.5507 25.627 21.6158 25.3636 21.675C25.0233 21.7579 24.68 21.8319 24.3367 21.8999C24.2213 21.9236 24.1058 21.9473 23.9934 21.968C23.6886 22.0272 23.3838 22.0804 23.0819 22.1308C22.931 22.1574 22.78 22.1781 22.6321 22.2018L22.1882 22.2728C22.0313 22.2906 21.8774 22.3083 21.7206 22.3231C21.6732 22.329 21.6288 22.332 21.5815 22.3379C21.469 22.3468 21.3595 22.3586 21.2471 22.3675C21.0902 22.3823 20.9304 22.3941 20.7736 22.406C20.6966 22.4149 20.6197 22.4178 20.5427 22.4237H20.525C20.3445 22.4356 20.1639 22.4474 19.9834 22.4563C19.9301 24.3769 20.1876 26.2739 20.744 28.1146L20.7913 28.2715C20.8919 28.2656 20.9896 28.2596 21.0873 28.2508C21.1938 28.2419 21.3033 28.236 21.4069 28.2271C21.4276 28.2241 21.4454 28.2241 21.4602 28.2241C21.5992 28.2123 21.7383 28.2005 21.8774 28.1857C22.0195 28.1738 22.1615 28.159 22.3036 28.1442C22.5196 28.1235 22.7297 28.0998 22.9398 28.0732L23.0434 28.0584L23.0464 28.0762L23.4992 28.0051C27.663 27.3955 32.4631 25.8803 35.6918 24.2112C35.7569 24.1786 35.8191 24.1461 35.8812 24.1135C35.9523 24.0751 36.0233 24.0366 36.0943 23.9981C36.5145 23.7703 36.9052 23.5424 37.2514 23.3175C37.4734 23.1725 37.6894 23.0215 37.9025 22.8617C37.9025 22.8588 37.8995 22.8588 37.8995 22.8558C40.3825 21.0121 42.0871 18.3605 42.7322 15.3094C43.0903 13.5811 43.0873 11.8262 42.7411 10.1364Z" fill="white"/>
</svg>
